<?xml version="1.0" standalone="no"?>
<!DOCTYPE svg PUBLIC "-//W3C//DTD SVG 20010904//EN"
 "http://www.w3.org/TR/2001/REC-SVG-20010904/DTD/svg10.dtd">
<svg version="1.0" xmlns="http://www.w3.org/2000/svg"
 width="1008.000000pt" height="372.000000pt" viewBox="0 0 1008.000000 372.000000"
 preserveAspectRatio="xMidYMid meet">

<g transform="translate(0.000000,372.000000) scale(0.100000,-0.100000)"
fill="#000000" stroke="none">
<path d="M764 3205 c-2 -5 -3 -628 -2 -1383 l3 -1372 4275 0 4275 0 0 1380 0
1380 -4274 3 c-2842 1 -4275 -1 -4277 -8z m4276 -115 l4144 0 66 63 65 62 -58
-60 -57 -61 0 -1264 0 -1264 57 -61 58 -60 -65 63 -66 62 -4144 0 -4144 0 -66
-62 -65 -63 58 60 57 61 0 1264 0 1264 -57 61 -58 60 65 -62 66 -63 4144 0z"/>
<path d="M1908 2188 c-3 -21 -9 -23 -74 -26 l-70 -3 -48 -257 c-49 -271 -53
-311 -34 -330 9 -9 116 -12 420 -12 385 0 408 1 417 18 6 11 22 84 36 163 15
79 29 146 31 148 3 3 3 -85 2 -195 l-3 -199 -388 -3 c-382 -2 -389 -2 -394 18
-3 11 -14 20 -24 20 -25 0 -25 -34 1 -60 19 -19 33 -20 415 -20 382 0 396 1
415 20 19 19 20 33 20 355 l0 334 -72 3 c-67 3 -73 5 -76 26 -2 12 -10 22 -17
22 -7 0 -15 -10 -17 -22 -3 -21 -8 -23 -73 -23 -65 0 -70 2 -73 23 -2 12 -10
22 -17 22 -7 0 -15 -10 -17 -22 -3 -21 -8 -23 -73 -23 -65 0 -70 2 -73 23 -2
12 -10 22 -17 22 -7 0 -15 -10 -17 -22 -3 -21 -8 -23 -73 -23 -65 0 -70 2 -73
23 -2 12 -10 22 -17 22 -7 0 -15 -10 -17 -22z m0 -85 c2 -13 10 -23 17 -23 7
0 15 10 17 23 3 20 8 22 73 22 65 0 70 -2 73 -22 2 -13 10 -23 17 -23 7 0 15
10 17 23 3 20 8 22 73 22 65 0 70 -2 73 -22 2 -13 10 -23 17 -23 7 0 15 10 17
23 3 20 8 22 73 22 65 0 70 -2 73 -22 2 -13 10 -23 17 -23 7 0 15 10 17 23 3
19 9 22 53 22 48 0 50 -1 47 -25 -9 -71 -84 -468 -92 -487 l-10 -23 -379 0
c-291 0 -381 3 -389 13 -7 8 0 66 24 197 18 102 34 186 34 188 0 1 173 2 385
2 378 0 385 0 385 20 0 20 -7 20 -381 20 l-381 0 7 43 c4 23 9 46 12 50 3 4
28 7 56 5 45 -3 52 -6 55 -25z"/>
<path d="M1851 1860 c-20 -92 -21 -90 64 -90 84 0 84 0 88 90 l2 45 -72 3 -71
3 -11 -51z m115 -12 c-3 -13 -6 -29 -6 -35 0 -8 -15 -13 -40 -13 -41 0 -45 5
-34 48 5 18 13 22 46 22 37 0 40 -2 34 -22z"/>
<path d="M3242 1703 c54 -8 58 -26 58 -273 0 -247 -4 -265 -58 -273 -15 -2 80
-5 210 -6 l238 -1 4 23 c13 58 22 146 14 141 -4 -3 -8 -11 -8 -17 0 -22 -63
-89 -96 -103 -19 -8 -63 -14 -98 -14 -82 0 -86 6 -86 139 l0 101 29 0 c41 0
79 -34 95 -88 14 -46 15 -43 15 103 0 146 -1 149 -15 103 -16 -54 -54 -88 -95
-88 l-29 0 0 110 0 110 70 0 c110 0 144 -20 177 -105 10 -27 12 -20 12 58 l1
87 -232 -1 c-128 -1 -221 -4 -206 -6z"/>
<path d="M5342 1703 c54 -8 58 -27 58 -265 0 -239 -5 -263 -54 -277 -24 -7 -8
-9 64 -9 71 0 88 2 65 9 -53 16 -55 24 -55 268 0 124 4 221 8 216 5 -6 55
-118 112 -250 56 -132 104 -241 105 -243 1 -1 48 109 104 245 57 137 107 252
112 258 5 5 9 -81 9 -221 0 -251 -4 -269 -58 -277 -15 -2 38 -4 118 -4 80 0
133 2 118 4 -54 8 -58 26 -58 268 0 243 5 265 55 276 17 4 -20 7 -80 8 l-111
1 -73 -180 c-41 -99 -77 -182 -80 -185 -4 -2 -42 79 -86 181 l-78 184 -111 -1
c-61 -1 -99 -4 -84 -6z"/>
<path d="M5172 1638 c-13 -20 -47 -59 -77 -87 -30 -27 -55 -52 -55 -55 0 -3
11 -6 25 -6 l25 0 0 -144 c0 -128 2 -146 20 -169 37 -46 104 -44 149 4 28 30
29 60 2 35 -11 -10 -28 -16 -38 -14 -16 3 -18 17 -21 146 l-3 142 46 0 c38 0
45 3 45 20 0 17 -7 20 -45 20 l-44 0 -3 73 -3 72 -23 -37z"/>
<path d="M4334 1530 c-42 -13 -101 -80 -110 -125 -11 -62 0 -162 22 -192 38
-50 71 -68 128 -68 60 1 107 28 132 77 20 39 13 44 -16 13 -48 -51 -124 -26
-156 51 -30 71 -27 74 91 74 l106 0 -7 38 c-18 103 -99 159 -190 132z m78 -37
c12 -11 18 -30 18 -60 l0 -43 -55 0 c-55 0 -55 0 -55 30 0 73 49 112 92 73z"/>
<path d="M4805 1527 c-17 -8 -36 -21 -44 -30 -19 -24 -31 -21 -31 8 0 25 -1
25 -77 24 -57 0 -72 -3 -55 -9 22 -9 22 -12 22 -180 0 -168 0 -171 -22 -180
-16 -6 6 -9 75 -9 l97 -1 -20 20 c-18 18 -20 33 -20 139 0 112 1 120 25 145
13 14 32 26 43 26 37 0 42 -19 42 -161 0 -131 -1 -139 -22 -153 -21 -15 -16
-16 77 -16 91 0 98 1 78 15 -20 14 -21 25 -25 165 -3 144 -4 150 -28 175 -31
31 -76 39 -115 22z"/>
<path d="M6237 1528 c-82 -22 -124 -100 -72 -134 48 -32 101 15 70 62 -21 33
-5 54 39 54 44 0 56 -16 56 -71 l0 -47 -72 -40 c-88 -48 -117 -77 -125 -125
-4 -30 -1 -40 22 -62 22 -23 32 -26 62 -22 20 4 52 17 72 30 l36 24 27 -28
c33 -37 67 -37 109 -2 l32 28 -24 5 c-24 6 -24 8 -29 142 -6 153 -13 169 -79
188 -43 12 -73 11 -124 -2z m93 -238 c0 -67 -1 -70 -27 -76 -35 -9 -57 7 -61
44 -2 24 5 38 33 66 20 20 40 36 45 36 6 0 10 -31 10 -70z"/>
<path d="M6765 1527 c-17 -8 -36 -21 -44 -30 -19 -24 -31 -21 -31 8 0 25 -1
25 -77 24 -57 0 -72 -3 -55 -9 22 -9 22 -12 22 -180 0 -168 0 -171 -22 -180
-16 -6 6 -9 75 -9 l97 -1 -20 20 c-18 18 -20 33 -20 139 0 112 1 120 25 145
13 14 32 26 43 26 37 0 42 -19 42 -161 0 -131 -1 -139 -22 -153 -21 -15 -16
-16 77 -16 91 0 98 1 78 15 -20 14 -21 25 -25 165 -3 144 -4 150 -28 175 -31
31 -76 39 -115 22z"/>
<path d="M7118 1525 c-81 -26 -115 -97 -63 -131 21 -14 31 -15 50 -6 28 13 32
37 13 77 -14 32 0 45 48 45 42 0 54 -16 54 -71 l0 -48 -70 -37 c-122 -64 -161
-134 -104 -190 21 -22 31 -25 61 -19 20 3 52 17 71 30 l35 24 29 -31 c24 -26
33 -29 61 -24 17 4 43 18 57 31 l25 25 -28 0 -27 0 0 125 c0 133 -8 165 -47
190 -34 23 -110 27 -165 10z m102 -234 c0 -54 -4 -70 -16 -75 -56 -22 -92 15
-69 70 12 30 58 74 76 74 5 0 9 -31 9 -69z"/>
<path d="M7533 1530 c-68 -21 -113 -94 -98 -160 6 -29 65 -90 87 -90 6 0 -7
-16 -30 -36 -34 -29 -42 -42 -42 -70 0 -22 7 -40 20 -51 23 -20 26 -33 7 -33
-8 0 -22 -9 -31 -19 -82 -90 218 -140 315 -53 42 38 49 90 18 126 -29 32 -78
45 -175 46 -80 0 -103 14 -85 48 8 15 25 20 74 24 76 6 121 28 147 71 24 38
25 78 5 117 l-16 30 36 0 c31 0 35 3 35 25 0 24 -2 25 -67 25 -38 0 -90 2
-118 5 -27 2 -64 0 -82 -5z m113 -55 c17 -42 18 -121 1 -155 -10 -19 -20 -25
-47 -25 -27 0 -37 6 -47 25 -17 34 -16 113 1 155 13 29 20 35 46 35 26 0 33
-6 46 -35z m75 -395 c10 -6 19 -20 19 -31 0 -48 -171 -70 -224 -28 -30 24 -32
32 -10 53 12 12 37 16 105 16 50 0 99 -5 110 -10z"/>
<path d="M7974 1530 c-42 -13 -101 -80 -110 -125 -11 -62 0 -162 22 -192 38
-50 71 -68 128 -68 60 1 107 28 132 77 20 39 13 44 -16 13 -48 -51 -124 -26
-156 51 -30 71 -27 74 91 74 l106 0 -7 38 c-18 103 -99 159 -190 132z m78 -37
c12 -11 18 -30 18 -60 l0 -43 -55 0 c-55 0 -55 0 -55 30 0 73 49 112 92 73z"/>
<path d="M8464 1530 c-11 -4 -34 -24 -52 -44 -17 -20 -34 -36 -37 -36 -3 0 -5
18 -5 40 l0 40 -70 0 -70 0 20 -20 c18 -18 20 -33 20 -170 0 -137 -2 -152 -20
-170 l-20 -20 98 1 c67 0 90 3 75 9 -30 12 -37 45 -31 148 9 136 38 175 98
130 40 -29 64 -16 68 38 5 53 -24 75 -74 54z"/>
<path d="M3786 1516 c11 -8 55 -94 99 -195 43 -100 81 -181 85 -181 3 0 39 79
80 176 48 112 84 183 99 195 l24 19 -64 -1 c-49 0 -59 -2 -41 -9 15 -7 22 -17
22 -37 -1 -30 -63 -188 -75 -188 -9 0 -85 175 -85 198 0 10 10 22 23 27 15 6
-10 9 -83 9 -93 1 -102 -1 -84 -13z"/>
</g>
</svg>
